Coordinates
version=1
nRows=12
nColumns=24
inDegrees=yes

Units are S.I. units (second, meters, Newtons, ...)
Angles are in degrees.

endheader
time	pelvis_tilt	pelvis_list	pelvis_rotation	pelvis_tx	pelvis_ty	pelvis_tz	hip_flexion_r	hip_adduction_r	hip_rotation_r	knee_angle_r	ankle_angle_r	subtalar_angle_r	mtp_angle_r	hip_flexion_l	hip_adduction_l	hip_rotation_l	knee_angle_l	ankle_angle_l	subtalar_angle_l	mtp_angle_l	lumbar_extension	lumbar_bending	lumbar_rotation
      2.49000000	     10.80932322	      4.82293458	     -1.00581321	      0.64599445	      0.94120537	      0.01024998	    -14.18376845	     -6.61054376	     -4.10676636	    -47.31795624	      5.40754455	     -6.11027885	     52.00986208	      3.39984886	      7.52995835	    -10.10198298	    -10.73672326	      5.61013693	    -14.58346631	     26.82152818	    -18.58357686	     -7.27926524	      2.20787986
      2.49500000	     10.54042406	      4.85745683	     -1.09633676	      0.65103992	      0.94126718	      0.00953499	    -12.89602629	     -6.79124578	     -3.76127995	    -49.14520482	      4.12816907	     -6.40076382	     51.98131046	      3.47924888	      7.62461002	    -10.07962935	    -10.98509619	      6.12353086	    -14.60288347	     26.25283819	    -18.30968966	     -7.34763668	      2.25971375
      2.50000000	     10.36956754	      4.89790277	     -1.21156175	      0.65607505	      0.94146199	      0.00888178	    -11.73353023	     -6.97386047	     -3.43847523	    -50.87519013	      3.03377388	     -6.68263017	     51.37678173	      3.43279675	      7.72366143	    -10.10090016	    -11.21619460	      6.87799331	    -14.34043118	     23.45171982	    -18.14242839	     -7.42887619	      2.35101266
      2.50500000	     10.20628181	      4.87239303	     -1.31129481	      0.66108490	      0.94172154	      0.00828519	    -10.60389644	     -7.04893063	     -3.10882594	    -52.48272340	      2.00429483	     -7.10304488	     51.16228457	      3.36553626	      7.74300230	    -10.14480584	    -11.40528069	      7.35271886	    -14.29287557	     23.36240930	    -17.98628561	     -7.43597587	      2.43286198
      2.51000000	     10.02666734	      4.84758950	     -1.40034374	      0.66605383	      0.94194481	      0.00767405	     -9.46207471	     -7.11834452	     -2.81939564	    -54.03108887	      1.20167588	     -7.46887595	     50.70913778	      3.31138649	      7.76421665	    -10.16614558	    -11.58268500	      7.82984353	    -14.24780194	     23.10671857	    -17.81701573	     -7.43582241	      2.49348366
      2.51500000	      9.83182442	      4.80175797	     -1.47008187	      0.67100283	      0.94216924	      0.00709529	     -8.32200250	     -7.14360621	     -2.55787580	    -55.49838063	      0.62062010	     -7.79588445	     49.80358808	      3.26883913	      7.75446465	    -10.21335441	    -11.75484747	      8.34787099	    -14.09762115	     22.56972774	    -17.63443840	     -7.41041181	      2.49301592
      2.52000000	      9.78044070	      4.78502684	     -1.57484130	      0.67599916	      0.94260315	      0.00656092	     -7.37070124	     -7.20619882	     -2.33390383	    -56.86943240	      0.45865972	     -8.02679898	     47.22485971	      3.01633285	      7.78821100	    -10.24757545	    -11.83309804	      8.94960618	    -13.84721875	     20.78383150	    -17.60211214	     -7.42331688	      2.55922460
      2.52500000	      9.75023404	      4.72946749	     -1.66975659	      0.68096361	      0.94312394	      0.00605489	     -6.46849640	     -7.20923335	     -2.13707259	    -58.10145876	      0.22218431	     -8.59428617	     47.04578797	      2.72833781	      7.77930591	    -10.28598939	    -11.87093880	      9.29921510	    -13.80347466	     20.72571077	    -17.59834065	     -7.39120364	      2.60763185
      2.53000000	      9.51356581	      4.59067741	     -1.69286972	      0.68574787	      0.94330443	      0.00552127	     -5.32479844	     -7.08742659	     -1.96378189	    -59.33362280	      0.35342667	     -8.89518810	     46.14051405	      2.76502249	      7.64968544	    -10.32166415	    -12.11768837	      9.91954376	    -13.53370290	     20.29219824	    -17.38950506	     -7.24963163	      2.60394602
      2.53500000	      9.48250073	      4.50928975	     -1.80130156	      0.69066017	      0.94383000	      0.00508361	     -4.43580533	     -7.04315463	     -1.79330431	    -60.45027925	      0.72141059	     -9.21303082	     43.43569907	      2.45705425	      7.60918723	    -10.36999992	    -12.12400431	     10.42981552	    -13.28049323	     18.73944735	    -17.38794473	     -7.19085854	      2.67945378
      2.54000000	      9.43708256	      4.39485897	     -1.87819636	      0.69551390	      0.94436163	      0.00464607	     -3.55688447	     -6.94350182	     -1.66716982	    -61.44309398	      1.01636111	     -9.87846852	     43.26072728	      2.18267727	      7.52857916	    -10.39813610	    -12.15500306	     10.75907255	    -13.21318981	     18.68407517	    -17.37979055	     -7.08773266	      2.71463466
      2.54500000	      9.28377519	      4.27988552	     -1.92632215	      0.70030062	      0.94469195	      0.00418049	     -2.54870870	     -6.84109018	     -1.58323316	    -62.43435587	      1.65630806	    -10.18704206	     41.11111310	      2.05979355	      7.43484793	    -10.42626508	    -12.26496278	     11.35619934	    -12.88085510	     17.60010758	    -17.25851668	     -6.97441212	      2.73275582
